<mxfile host="app.diagrams.net" agent="Mozilla/5.0 (Windows NT 10.0; Win64; x64) AppleWebKit/537.36 (KHTML, like Gecko) Chrome/133.0.0.0 Safari/537.36" version="26.0.16">
  <diagram name="Halaman-1" id="RK0aogwzNpBGmrGbHJSx">
    <mxGraphModel dx="1366" dy="663" grid="1" gridSize="10" guides="1" tooltips="1" connect="1" arrows="1" fold="1" page="1" pageScale="1" pageWidth="827" pageHeight="1169" math="0" shadow="0">
      <root>
        <mxCell id="0" />
        <mxCell id="1" parent="0" />
        <mxCell id="To7IAQ98atd0NisCjidW-9" style="edgeStyle=orthogonalEdgeStyle;rounded=0;orthogonalLoop=1;jettySize=auto;html=1;exitX=0.5;exitY=1;exitDx=0;exitDy=0;entryX=0.5;entryY=0;entryDx=0;entryDy=0;" parent="1" source="To7IAQ98atd0NisCjidW-1" target="To7IAQ98atd0NisCjidW-3" edge="1">
          <mxGeometry relative="1" as="geometry" />
        </mxCell>
        <mxCell id="To7IAQ98atd0NisCjidW-1" value="" style="ellipse;html=1;shape=startState;fillColor=#000000;strokeColor=light-dark(#000000, #ff9090);" parent="1" vertex="1">
          <mxGeometry x="354" y="90" width="60" height="60" as="geometry" />
        </mxCell>
        <mxCell id="zv-CcIZkoeFR41GSKD6D-5" style="edgeStyle=orthogonalEdgeStyle;rounded=0;orthogonalLoop=1;jettySize=auto;html=1;exitX=0.5;exitY=1;exitDx=0;exitDy=0;entryX=0.5;entryY=0;entryDx=0;entryDy=0;" edge="1" parent="1" source="To7IAQ98atd0NisCjidW-3" target="To7IAQ98atd0NisCjidW-6">
          <mxGeometry relative="1" as="geometry" />
        </mxCell>
        <mxCell id="To7IAQ98atd0NisCjidW-3" value="Akses sistem dan pilih menu &quot;Pengajuan Surat&quot;" style="rounded=1;whiteSpace=wrap;html=1;" parent="1" vertex="1">
          <mxGeometry x="324" y="220" width="120" height="60" as="geometry" />
        </mxCell>
        <mxCell id="zv-CcIZkoeFR41GSKD6D-7" style="edgeStyle=orthogonalEdgeStyle;rounded=0;orthogonalLoop=1;jettySize=auto;html=1;exitX=0.5;exitY=1;exitDx=0;exitDy=0;entryX=0.5;entryY=0;entryDx=0;entryDy=0;" edge="1" parent="1" source="To7IAQ98atd0NisCjidW-6" target="zv-CcIZkoeFR41GSKD6D-1">
          <mxGeometry relative="1" as="geometry" />
        </mxCell>
        <mxCell id="zv-CcIZkoeFR41GSKD6D-10" style="edgeStyle=orthogonalEdgeStyle;rounded=0;orthogonalLoop=1;jettySize=auto;html=1;exitX=1;exitY=0.5;exitDx=0;exitDy=0;entryX=0.923;entryY=-0.125;entryDx=0;entryDy=0;entryPerimeter=0;" edge="1" parent="1" source="To7IAQ98atd0NisCjidW-6" target="zv-CcIZkoeFR41GSKD6D-6">
          <mxGeometry relative="1" as="geometry">
            <mxPoint x="550" y="500" as="targetPoint" />
          </mxGeometry>
        </mxCell>
        <mxCell id="To7IAQ98atd0NisCjidW-6" value="Apakah ingin menggunakan template surat?" style="rhombus;whiteSpace=wrap;html=1;" parent="1" vertex="1">
          <mxGeometry x="313.5" y="350" width="141" height="80" as="geometry" />
        </mxCell>
        <mxCell id="To7IAQ98atd0NisCjidW-20" value="&lt;font style=&quot;font-size: 25px;&quot;&gt;Mengajukan Permohonan Surat&lt;/font&gt;" style="text;html=1;align=center;verticalAlign=middle;resizable=0;points=[];autosize=1;strokeColor=none;fillColor=none;" parent="1" vertex="1">
          <mxGeometry x="194" y="13" width="380" height="40" as="geometry" />
        </mxCell>
        <mxCell id="zv-CcIZkoeFR41GSKD6D-1" value="Download template surat" style="rounded=1;whiteSpace=wrap;html=1;" vertex="1" parent="1">
          <mxGeometry x="324" y="500" width="120" height="50" as="geometry" />
        </mxCell>
        <mxCell id="zv-CcIZkoeFR41GSKD6D-6" value="" style="line;strokeWidth=10;fillColor=none;align=left;verticalAlign=middle;spacingTop=-1;spacingLeft=3;spacingRight=3;rotatable=0;labelPosition=right;points=[];portConstraint=eastwest;strokeColor=inherit;" vertex="1" parent="1">
          <mxGeometry x="410" y="651" width="110" height="8" as="geometry" />
        </mxCell>
        <mxCell id="zv-CcIZkoeFR41GSKD6D-8" value="yes" style="text;html=1;align=center;verticalAlign=middle;resizable=0;points=[];autosize=1;strokeColor=none;fillColor=none;" vertex="1" parent="1">
          <mxGeometry x="380" y="450" width="40" height="30" as="geometry" />
        </mxCell>
        <mxCell id="zv-CcIZkoeFR41GSKD6D-9" value="no" style="text;html=1;align=center;verticalAlign=middle;resizable=0;points=[];autosize=1;strokeColor=none;fillColor=none;" vertex="1" parent="1">
          <mxGeometry x="430" y="338" width="40" height="30" as="geometry" />
        </mxCell>
        <mxCell id="zv-CcIZkoeFR41GSKD6D-11" style="edgeStyle=orthogonalEdgeStyle;rounded=0;orthogonalLoop=1;jettySize=auto;html=1;exitX=0.5;exitY=1;exitDx=0;exitDy=0;" edge="1" parent="1" source="zv-CcIZkoeFR41GSKD6D-1">
          <mxGeometry relative="1" as="geometry">
            <mxPoint x="420" y="650" as="targetPoint" />
          </mxGeometry>
        </mxCell>
        <mxCell id="zv-CcIZkoeFR41GSKD6D-17" style="edgeStyle=orthogonalEdgeStyle;rounded=0;orthogonalLoop=1;jettySize=auto;html=1;exitX=0.5;exitY=1;exitDx=0;exitDy=0;entryX=0.5;entryY=0;entryDx=0;entryDy=0;" edge="1" parent="1" source="zv-CcIZkoeFR41GSKD6D-12" target="zv-CcIZkoeFR41GSKD6D-15">
          <mxGeometry relative="1" as="geometry" />
        </mxCell>
        <mxCell id="zv-CcIZkoeFR41GSKD6D-12" value="Mengisi data permohonan dan mengunggah dokumen pendukung" style="rounded=1;whiteSpace=wrap;html=1;" vertex="1" parent="1">
          <mxGeometry x="408" y="720" width="130" height="70" as="geometry" />
        </mxCell>
        <mxCell id="zv-CcIZkoeFR41GSKD6D-14" value="" style="endArrow=classic;html=1;rounded=0;exitX=0.573;exitY=1.077;exitDx=0;exitDy=0;exitPerimeter=0;entryX=0.5;entryY=0;entryDx=0;entryDy=0;" edge="1" parent="1" source="zv-CcIZkoeFR41GSKD6D-6" target="zv-CcIZkoeFR41GSKD6D-12">
          <mxGeometry width="50" height="50" relative="1" as="geometry">
            <mxPoint x="313.5" y="730" as="sourcePoint" />
            <mxPoint x="363.5" y="680" as="targetPoint" />
          </mxGeometry>
        </mxCell>
        <mxCell id="zv-CcIZkoeFR41GSKD6D-20" style="edgeStyle=orthogonalEdgeStyle;rounded=0;orthogonalLoop=1;jettySize=auto;html=1;exitX=0.5;exitY=1;exitDx=0;exitDy=0;entryX=0.5;entryY=0;entryDx=0;entryDy=0;" edge="1" parent="1" source="zv-CcIZkoeFR41GSKD6D-15" target="zv-CcIZkoeFR41GSKD6D-18">
          <mxGeometry relative="1" as="geometry" />
        </mxCell>
        <mxCell id="zv-CcIZkoeFR41GSKD6D-15" value="Mengirim pengajuan" style="rounded=1;whiteSpace=wrap;html=1;" vertex="1" parent="1">
          <mxGeometry x="413" y="840" width="120" height="60" as="geometry" />
        </mxCell>
        <mxCell id="zv-CcIZkoeFR41GSKD6D-18" value="" style="ellipse;html=1;shape=endState;fillColor=#000000;strokeColor=#000000;" vertex="1" parent="1">
          <mxGeometry x="448" y="950" width="50" height="50" as="geometry" />
        </mxCell>
      </root>
    </mxGraphModel>
  </diagram>
</mxfile>
